<svg class="sc-1r54gnd-0 IconSystem__BaseLogoSohst-sc-16tbhrs-68 lfrmlT VIvUh MenuContent__StyledIcons-sc-r1bfw4-2 dkNIFX" fill="none" viewBox="0 0 180 60"><path d="M30 60c16.569 0 30-13.431 30-30C60 13.431 46.569 0 30 0 13.431 0 0 13.431 0 30c0 16.569 13.431 30 30 30z" fill="#6DC201"></path><path d="M35.483 18.8c-6.306 0-11.416 5.131-11.416 11.462v.15c0 6.722 5.42 12.165 12.116 12.165 4.02 0 7.568-1.96 9.773-4.981l-4.697-3.494c-.953 1.799-2.837 3.032-5.007 3.032-2.664 0-4.893-1.845-5.501-4.324H46.6c.011-.023.011-.035.023-.058.023-.115.057-.23.068-.346.127-.691.196-1.418.196-2.144.011-6.33-5.1-11.462-11.404-11.462zm-4.192 8.856c.54-1.915 2.285-3.321 4.364-3.321 2.078 0 3.824 1.406 4.364 3.32h-8.728zM21.773 18.8h-7.745v23.777h7.745V18.8zM17.912 17.212c2.559 0 4.633-2.082 4.633-4.65 0-2.568-2.075-4.65-4.634-4.65s-4.633 2.082-4.633 4.65c0 2.568 2.074 4.65 4.633 4.65zM13.982 48.083c0 .916.664 1.538 1.658 1.538.988 0 1.652-.622 1.652-1.538V45.46h-.745v2.616c0 .553-.364.864-.913.864s-.907-.311-.907-.858V45.46h-.745v2.622zM18.276 49.552h.746v-2.356c0-.242-.04-.634-.04-.634h.01s.186.398.342.634l1.554 2.356h.74v-4.09h-.74v2.362c0 .242.04.633.04.633h-.011s-.185-.397-.341-.633l-1.554-2.363h-.745v4.09zM22.666 49.552h.745v-4.09h-.745v4.09zM25.419 49.552h.74l1.496-4.09h-.798l-.906 2.667c-.081.236-.15.6-.157.6h-.011c-.006 0-.075-.364-.156-.6l-.901-2.668h-.803l1.496 4.09zM28.166 49.552h2.548v-.64h-1.802v-1.1h1.38v-.64h-1.38v-1.071h1.71v-.64h-2.456v4.09zM31.49 49.552h.744v-1.527h.717l.814 1.527h.832l-.843-1.527c-.081-.144-.139-.201-.139-.201v-.012c.433-.173.693-.628.693-1.118 0-.541-.26-.933-.67-1.117-.179-.081-.381-.116-.826-.116H31.49v4.09zm.744-2.172V46.1h.566c.584 0 .751.243.751.635 0 .409-.248.645-.647.645h-.67zM34.98 49.062s.502.559 1.415.559c.855 0 1.352-.547 1.352-1.199 0-1.307-1.93-1.129-1.93-1.855 0-.288.272-.49.618-.49.515 0 .908.358.908.358l.323-.605s-.416-.438-1.225-.438c-.785 0-1.375.507-1.375 1.187 0 1.256 1.935 1.129 1.935 1.86 0 .335-.283.496-.594.496-.578 0-1.023-.432-1.023-.432l-.404.559zM38.49 49.552h.745v-4.09h-.745v4.09zM41.122 49.552h.746V46.1h1.346v-.64h-3.438v.64h1.346v3.45zM44.778 49.552h.745V47.84l1.364-2.38h-.843l-.636 1.205c-.133.253-.248.547-.248.547h-.012c-.006.006-.116-.294-.248-.547l-.642-1.205h-.843l1.363 2.38v1.71z" fill="#fff"></path><path d="M71.23 18.785s1.13 1.262 3.187 1.262c1.925 0 3.044-1.236 3.044-2.706 0-2.953-4.346-2.55-4.346-4.189 0-.65.612-1.105 1.393-1.105 1.157 0 2.042.806 2.042.806l.728-1.366s-.936-.989-2.757-.989c-1.77 0-3.097 1.145-3.097 2.68 0 2.837 4.359 2.55 4.359 4.202 0 .755-.638 1.12-1.34 1.12-1.301 0-2.303-.976-2.303-.976l-.91 1.261zm7.268-3.551c0 2.719 1.95 4.813 4.774 4.813 2.355 0 3.63-1.496 3.63-1.496l-.885-1.21s-1.08 1.171-2.68 1.171c-1.925 0-3.11-1.548-3.11-3.304 0-1.717 1.146-3.174 3.097-3.174 1.47 0 2.524.975 2.524.975l.806-1.249S85.497 10.5 83.246 10.5c-2.719 0-4.748 2.055-4.748 4.735zm9.95 4.657h1.678v-3.876h4.227v3.876h1.679v-9.236h-1.678v3.915h-4.228v-3.915h-1.679v9.236zm9.284-4.683c0 2.719 2.055 4.84 4.774 4.84s4.775-2.121 4.775-4.84c0-2.641-2.056-4.71-4.775-4.71-2.719 0-4.774 2.069-4.774 4.71zm1.73 0c0-1.821 1.353-3.174 3.044-3.174 1.692 0 3.045 1.353 3.045 3.174 0 1.9-1.353 3.304-3.045 3.304-1.691 0-3.044-1.405-3.044-3.304zm8.891 0c0 2.719 2.055 4.84 4.774 4.84s4.775-2.121 4.775-4.84c0-2.641-2.056-4.71-4.775-4.71-2.719 0-4.774 2.069-4.774 4.71zm1.73 0c0-1.821 1.353-3.174 3.044-3.174s3.044 1.353 3.044 3.174c0 1.9-1.353 3.304-3.044 3.304s-3.044-1.405-3.044-3.304zm9.528 4.683h5.672v-1.444h-3.994v-7.792h-1.678v9.236zm9.539-4.683c0 2.719 2.056 4.84 4.775 4.84 2.718 0 4.774-2.121 4.774-4.84 0-2.641-2.056-4.71-4.774-4.71-2.719 0-4.775 2.069-4.775 4.71zm1.73 0c0-1.821 1.353-3.174 3.045-3.174 1.691 0 3.044 1.353 3.044 3.174 0 1.9-1.353 3.304-3.044 3.304-1.692 0-3.045-1.405-3.045-3.304zm9.528 4.683h1.678v-3.733h3.058v-1.445h-3.058V12.1h3.63v-1.444h-5.308v9.236zM71.229 33.133s1.132 1.262 3.188 1.262c1.925 0 3.044-1.236 3.044-2.706 0-2.953-4.346-2.55-4.346-4.189 0-.65.612-1.105 1.393-1.105 1.157 0 2.042.806 2.042.806l.728-1.366s-.936-.989-2.757-.989c-1.77 0-3.097 1.145-3.097 2.68 0 2.836 4.359 2.55 4.359 4.202 0 .755-.638 1.119-1.34 1.119-1.301 0-2.303-.976-2.303-.976l-.91 1.262zm7.269-3.551c0 2.719 1.95 4.813 4.774 4.813 2.355 0 3.63-1.496 3.63-1.496l-.885-1.21s-1.08 1.171-2.68 1.171c-1.925 0-3.11-1.548-3.11-3.304 0-1.718 1.146-3.175 3.097-3.175 1.47 0 2.524.976 2.524.976l.806-1.249s-1.157-1.262-3.408-1.262c-2.719 0-4.748 2.056-4.748 4.736zm9.95 4.657h1.678v-9.236h-1.679v9.236zm4.014 0h5.737v-1.444H94.14V30.31h3.11v-1.444h-3.11v-2.42h3.851v-1.444h-5.53v9.237zm7.483 0h1.678v-5.32c0-.547-.091-1.432-.091-1.432h.026s.416.898.767 1.431l3.5 5.321h1.665v-9.236h-1.665v5.333c0 .547.091 1.431.091 1.431h-.026s-.416-.897-.767-1.43l-3.5-5.334h-1.678v9.236zm9.246-4.657c0 2.719 1.952 4.813 4.775 4.813 2.354 0 3.629-1.496 3.629-1.496l-.884-1.21s-1.08 1.171-2.68 1.171c-1.926 0-3.109-1.548-3.109-3.304 0-1.718 1.145-3.175 3.096-3.175 1.47 0 2.524.976 2.524.976l.806-1.249s-1.158-1.262-3.408-1.262c-2.719 0-4.749 2.056-4.749 4.736zm9.95 4.657h5.737v-1.444h-4.059V30.31h3.11v-1.444h-3.11v-2.42h3.851v-1.444h-5.529v9.237zm10.061-2.615c0 1.561 1.301 2.771 3.304 2.771 2.082 0 3.318-1.249 3.318-3.135v-1.093h1.197V28.71h-1.197v-1.197h-1.652v1.197h-1.47c-1.106 0-1.405-.69-1.405-1.223 0-.806.637-1.236 1.417-1.236.3 0 .612.078.612.078l.403-1.326s-.624-.157-1.21-.157c-1.6 0-2.914.794-2.914 2.433 0 1.561 1.171 2.017 1.171 2.017v.026c-.976.338-1.574 1.3-1.574 2.302zm1.717-.104c0-.898.664-1.353 1.691-1.353h1.562v1.002c0 1.119-.625 1.691-1.666 1.691-.949 0-1.587-.598-1.587-1.34zM73.844 48.587h1.678v-7.793h3.031V39.35h-7.74v1.444h3.031v7.793zm5.926 0h5.737v-1.444h-4.059v-2.485h3.11v-1.444h-3.11v-2.42H85.3V39.35H79.77v9.237zm6.795-4.657c0 2.719 1.951 4.813 4.774 4.813 2.355 0 3.63-1.496 3.63-1.496l-.885-1.21s-1.08 1.17-2.68 1.17c-1.925 0-3.109-1.547-3.109-3.303 0-1.718 1.145-3.175 3.096-3.175 1.47 0 2.524.976 2.524.976l.807-1.249s-1.158-1.262-3.409-1.262c-2.719 0-4.748 2.056-4.748 4.736zm9.95 4.657h1.678V44.71h4.228v3.877h1.678V39.35h-1.678v3.916h-4.228V39.35h-1.678v9.237zm9.922 0h1.678v-5.32c0-.547-.091-1.432-.091-1.432h.026s.416.898.767 1.431l3.5 5.32h1.665V39.35h-1.665v5.334c0 .547.091 1.431.091 1.431h-.026s-.416-.898-.767-1.431l-3.5-5.334h-1.678v9.237zm9.246-4.683c0 2.719 2.056 4.84 4.775 4.84 2.719 0 4.774-2.121 4.774-4.84 0-2.641-2.055-4.71-4.774-4.71s-4.775 2.069-4.775 4.71zm1.73 0c0-1.822 1.354-3.175 3.045-3.175 1.691 0 3.044 1.353 3.044 3.175 0 1.899-1.353 3.304-3.044 3.304s-3.045-1.405-3.045-3.304zm9.529 4.683h5.672v-1.444h-3.994V39.35h-1.678v9.237zm6.223-4.683c0 2.719 2.055 4.84 4.774 4.84s4.775-2.121 4.775-4.84c0-2.641-2.056-4.71-4.775-4.71-2.719 0-4.774 2.069-4.774 4.71zm1.73 0c0-1.822 1.353-3.175 3.044-3.175s3.044 1.353 3.044 3.175c0 1.899-1.353 3.304-3.044 3.304s-3.044-1.405-3.044-3.304zm8.903.051c0 2.902 2.095 4.788 4.528 4.788 1.717 0 2.68-.989 2.68-.989h.026s-.013.195-.013.39v.443h1.431V43.72h-2.927v1.445h1.418v1.08s-.924.962-2.316.962c-1.73 0-3.096-1.3-3.096-3.304 0-1.744 1.105-3.175 3.174-3.175 1.47 0 2.459.885 2.459.885l.832-1.25s-1.171-1.17-3.434-1.17c-2.745 0-4.762 2.082-4.762 4.761zm12.396 4.632h1.678v-3.864l3.07-5.373h-1.899l-1.431 2.72c-.299.572-.559 1.235-.559 1.235h-.026c-.013.013-.26-.663-.56-1.236l-1.444-2.719h-1.899l3.07 5.373v3.864z" fill="#0F0F0F"></path></svg>
